<?xml version="1.0" encoding="UTF-8"?>
<!DOCTYPE svg PUBLIC "-//W3C//DTD SVG 1.1//EN" "http://www.w3.org/Graphics/SVG/1.1/DTD/svg11.dtd">
<svg xmlns="http://www.w3.org/2000/svg" version="1.1" width="512px" height="512px" style="shape-rendering:geometricPrecision; text-rendering:geometricPrecision; image-rendering:optimizeQuality; fill-rule:evenodd; clip-rule:evenodd" xmlns:xlink="http://www.w3.org/1999/xlink">
<g><path style="opacity:0.963" fill="#020001" d="M 154.5,118.5 C 152.973,118.427 151.973,119.094 151.5,120.5C 143.154,129.846 134.154,138.512 124.5,146.5C 120.833,143.5 117.5,140.167 114.5,136.5C 116.984,133.516 119.65,130.682 122.5,128C 69.9483,137.875 35.4483,168.375 19,219.5C 6.57336,275.558 22.4067,321.725 66.5,358C 111.22,388.669 157.553,391.503 205.5,366.5C 249.108,341.316 271.108,303.316 271.5,252.5C 269.728,202.259 247.061,164.926 203.5,140.5C 192.024,134.841 180.024,130.675 167.5,128C 166.62,126.644 166.286,125.144 166.5,123.5C 167.354,121.965 167.354,120.632 166.5,119.5C 167.185,117.586 167.685,115.586 168,113.5C 184.772,115.201 200.606,120.367 215.5,129C 233.043,139.756 248.043,153.256 260.5,169.5C 266.832,180.161 272.666,191.161 278,202.5C 279.844,199.472 281.678,196.472 283.5,193.5C 312.817,156.671 350.483,143.838 396.5,155C 443.231,171.238 468.231,204.071 471.5,253.5C 467.913,309.918 438.58,344.418 383.5,357C 342.289,361.546 308.956,347.712 283.5,315.5C 281.745,312.32 279.745,309.32 277.5,306.5C 273.951,315.265 269.618,323.598 264.5,331.5C 266.552,333.878 268.552,336.211 270.5,338.5C 290.02,360.769 314.353,375.102 343.5,381.5C 343.949,384.044 343.949,386.71 343.5,389.5C 343.662,391.527 343.495,393.527 343,395.5C 307.5,390.16 278.333,373.493 255.5,345.5C 211.119,394.599 157.119,409.433 93.5,390C 47.7925,372.094 17.9591,339.594 4,292.5C 2.26914,285.41 0.769143,278.41 -0.5,271.5C -0.5,260.167 -0.5,248.833 -0.5,237.5C 7.71563,183.783 36.3823,145.283 85.5,122C 98.0274,116.714 111.027,113.047 124.5,111C 120.651,107.318 116.984,103.485 113.5,99.5C 116.833,95.5 120.5,91.8333 124.5,88.5C 134.854,98.1877 144.854,108.188 154.5,118.5 Z M 231.5,247.5 C 230.485,251.531 230.485,255.531 231.5,259.5C 227.612,295.532 209.278,321.032 176.5,336C 133.184,350.336 97.6841,339.503 70,303.5C 51.4341,272.239 50.7674,240.573 68,208.5C 94.5673,170.647 130.067,158.481 174.5,172C 207.618,186.363 226.618,211.53 231.5,247.5 Z M 356.5,166.5 C 401.807,164.348 433.307,184.014 451,225.5C 463.077,271.292 449.244,306.792 409.5,332C 372.682,349.263 338.682,344.93 307.5,319C 297.07,308.815 289.403,296.815 284.5,283C 288.474,263.997 288.474,244.997 284.5,226C 297.527,192.8 321.527,172.967 356.5,166.5 Z M 140.5,246.5 C 145.558,245.717 149.058,247.717 151,252.5C 151.167,259 148,262.167 141.5,262C 136.383,260.268 134.55,256.768 136,251.5C 137.025,249.313 138.525,247.646 140.5,246.5 Z M 364.5,246.5 C 374.033,246.241 377.199,250.574 374,259.5C 368.162,264.041 363.495,263.041 360,256.5C 359.333,255.167 359.333,253.833 360,252.5C 361.332,250.34 362.832,248.34 364.5,246.5 Z"/></g>
<g><path style="opacity:0.957" fill="#020001" d="M 511.5,237.5 C 511.5,248.833 511.5,260.167 511.5,271.5C 498.6,341.901 456.934,384.067 386.5,398C 390.349,401.682 394.016,405.515 397.5,409.5C 394.167,413.5 390.5,417.167 386.5,420.5C 376.146,410.812 366.146,400.812 356.5,390.5C 366.479,380.855 376.479,371.188 386.5,361.5C 390.167,364.5 393.5,367.833 396.5,371.5C 393.683,374.818 390.683,377.985 387.5,381C 402.233,379.034 416.233,374.534 429.5,367.5C 483.018,334.105 504.184,286.105 493,223.5C 483.095,186.326 461.262,158.659 427.5,140.5C 379.774,117.477 334.107,120.977 290.5,151C 285.533,154.966 280.866,159.299 276.5,164C 275.5,164.667 274.5,164.667 273.5,164C 272.211,162.198 270.544,161.031 268.5,160.5C 267.167,159.067 265.667,157.733 264,156.5C 263.333,155.5 263.333,154.5 264,153.5C 306.438,113.405 355.938,101.238 412.5,117C 468.785,138.111 501.785,178.278 511.5,237.5 Z"/></g>
<g><path style="opacity:1" fill="#cb367b" d="M 154.5,118.5 C 158.534,118.505 162.534,118.838 166.5,119.5C 167.354,120.632 167.354,121.965 166.5,123.5C 161.442,122.651 156.442,121.651 151.5,120.5C 151.973,119.094 152.973,118.427 154.5,118.5 Z"/></g>
<g><path style="opacity:1" fill="#ed5273" d="M 151.5,120.5 C 156.442,121.651 161.442,122.651 166.5,123.5C 166.286,125.144 166.62,126.644 167.5,128C 180.024,130.675 192.024,134.841 203.5,140.5C 258.444,183.179 275.277,237.846 254,304.5C 243.802,329.928 227.635,350.595 205.5,366.5C 157.553,391.503 111.22,388.669 66.5,358C 22.4067,321.725 6.57336,275.558 19,219.5C 35.4483,168.375 69.9483,137.875 122.5,128C 119.65,130.682 116.984,133.516 114.5,136.5C 117.5,140.167 120.833,143.5 124.5,146.5C 134.154,138.512 143.154,129.846 151.5,120.5 Z M 231.5,247.5 C 230.485,251.531 230.485,255.531 231.5,259.5C 227.612,295.532 209.278,321.032 176.5,336C 133.184,350.336 97.6841,339.503 70,303.5C 51.4341,272.239 50.7674,240.573 68,208.5C 94.5673,170.647 130.067,158.481 174.5,172C 207.618,186.363 226.618,211.53 231.5,247.5 Z M 140.5,246.5 C 138.525,247.646 137.025,249.313 136,251.5C 134.55,256.768 136.383,260.268 141.5,262C 148,262.167 151.167,259 151,252.5C 149.058,247.717 145.558,245.717 140.5,246.5 Z"/></g>
<g><path style="opacity:1" fill="#ed5373" d="M 427.5,140.5 C 481.658,181.476 499.158,234.81 480,300.5C 469.431,327.675 452.598,350.009 429.5,367.5C 416.233,374.534 402.233,379.034 387.5,381C 390.683,377.985 393.683,374.818 396.5,371.5C 393.5,367.833 390.167,364.5 386.5,361.5C 376.479,371.188 366.479,380.855 356.5,390.5C 352.176,390.073 347.842,389.739 343.5,389.5C 343.949,386.71 343.949,384.044 343.5,381.5C 314.353,375.102 290.02,360.769 270.5,338.5C 275.102,330.96 279.435,323.294 283.5,315.5C 308.956,347.712 342.289,361.546 383.5,357C 438.58,344.418 467.913,309.918 471.5,253.5C 468.231,204.071 443.231,171.238 396.5,155C 350.483,143.838 312.817,156.671 283.5,193.5C 278.866,184.237 273.699,175.237 268,166.5C 267.184,165.177 266.017,164.511 264.5,164.5C 265.5,162.833 266.833,161.5 268.5,160.5C 270.544,161.031 272.211,162.198 273.5,164C 274.5,164.667 275.5,164.667 276.5,164C 280.866,159.299 285.533,154.966 290.5,151C 334.107,120.977 379.774,117.477 427.5,140.5 Z"/></g>
<g><path style="opacity:1" fill="#cb347e" d="M 203.5,140.5 C 247.061,164.926 269.728,202.259 271.5,252.5C 271.108,303.316 249.108,341.316 205.5,366.5C 227.635,350.595 243.802,329.928 254,304.5C 275.277,237.846 258.444,183.179 203.5,140.5 Z"/></g>
<g><path style="opacity:1" fill="#cb347e" d="M 427.5,140.5 C 461.262,158.659 483.095,186.326 493,223.5C 504.184,286.105 483.018,334.105 429.5,367.5C 452.598,350.009 469.431,327.675 480,300.5C 499.158,234.81 481.658,181.476 427.5,140.5 Z"/></g>
<g><path style="opacity:0.964" fill="#030101" d="M 131.5,150.5 C 174.712,148.189 208.212,164.856 232,200.5C 256.858,248.497 250.691,291.997 213.5,331C 183.11,356.346 148.777,363.679 110.5,353C 60.8513,332.566 37.3513,295.4 40,241.5C 47.1485,201.021 69.6485,172.854 107.5,157C 115.459,154.179 123.459,152.013 131.5,150.5 Z M 231.5,247.5 C 230.485,251.531 230.485,255.531 231.5,259.5C 227.612,295.532 209.278,321.032 176.5,336C 133.184,350.336 97.6841,339.503 70,303.5C 51.4341,272.239 50.7674,240.573 68,208.5C 94.5673,170.647 130.067,158.481 174.5,172C 207.618,186.363 226.618,211.53 231.5,247.5 Z M 140.5,246.5 C 138.525,247.646 137.025,249.313 136,251.5C 134.55,256.768 136.383,260.268 141.5,262C 148,262.167 151.167,259 151,252.5C 149.058,247.717 145.558,245.717 140.5,246.5 Z"/></g>
<g><path style="opacity:1" fill="#cc347f" d="M 264.5,164.5 C 266.017,164.511 267.184,165.177 268,166.5C 273.699,175.237 278.866,184.237 283.5,193.5C 281.678,196.472 279.844,199.472 278,202.5C 272.666,191.161 266.832,180.161 260.5,169.5C 261.833,167.833 263.167,166.167 264.5,164.5 Z"/></g>
<g><path style="opacity:0.958" fill="#000101" d="M 119.5,182.5 C 135.5,182.5 151.5,182.5 167.5,182.5C 167.334,189.508 167.5,196.508 168,203.5C 170.147,205.476 172.647,206.809 175.5,207.5C 181.463,204.183 187.463,200.85 193.5,197.5C 201.752,211.002 209.752,224.669 217.5,238.5C 212.04,242.402 206.373,246.069 200.5,249.5C 199.167,252.833 199.167,256.167 200.5,259.5C 206.25,262.456 211.75,265.79 217,269.5C 210.007,283.804 202.174,297.804 193.5,311.5C 187.416,307.707 181.249,304.041 175,300.5C 173.084,302.209 170.918,303.543 168.5,304.5C 167.503,311.803 167.169,319.137 167.5,326.5C 151.5,326.5 135.5,326.5 119.5,326.5C 119.666,319.492 119.5,312.492 119,305.5C 116.165,304.084 113.498,302.417 111,300.5C 105.167,304.418 99.1668,308.084 93,311.5C 84.6449,298.122 76.8115,284.455 69.5,270.5C 74.2463,266.281 79.5796,262.781 85.5,260C 87.6912,256.77 88.0245,253.27 86.5,249.5C 81.1667,246.5 75.8333,243.5 70.5,240.5C 69.3861,239.277 69.2195,237.944 70,236.5C 77.4146,223.335 85.0813,210.335 93,197.5C 98.9643,201.232 105.131,204.565 111.5,207.5C 114.043,206.311 116.543,204.978 119,203.5C 119.5,196.508 119.666,189.508 119.5,182.5 Z M 140.5,246.5 C 138.525,247.646 137.025,249.313 136,251.5C 134.55,256.768 136.383,260.268 141.5,262C 148,262.167 151.167,259 151,252.5C 149.058,247.717 145.558,245.717 140.5,246.5 Z"/></g>
<g><path style="opacity:0.958" fill="#000101" d="M 343.5,182.5 C 359.5,182.5 375.5,182.5 391.5,182.5C 391.334,189.508 391.5,196.508 392,203.5C 394.457,204.978 396.957,206.311 399.5,207.5C 405.869,204.565 412.036,201.232 418,197.5C 426.355,210.878 434.188,224.545 441.5,238.5C 436.417,242.887 430.751,246.553 424.5,249.5C 423.345,252.446 423.179,255.446 424,258.5C 429.369,262.032 434.869,265.365 440.5,268.5C 441.614,269.723 441.781,271.056 441,272.5C 433.333,285.5 425.667,298.5 418,311.5C 411.833,308.084 405.833,304.418 400,300.5C 397.502,302.417 394.835,304.084 392,305.5C 391.5,312.492 391.334,319.492 391.5,326.5C 375.5,326.5 359.5,326.5 343.5,326.5C 343.831,319.137 343.497,311.803 342.5,304.5C 340.082,303.543 337.916,302.209 336,300.5C 329.751,304.041 323.584,307.707 317.5,311.5C 309.248,297.998 301.248,284.331 293.5,270.5C 298.875,266.473 304.541,262.807 310.5,259.5C 311.791,255.955 311.791,252.455 310.5,249C 304.918,245.96 299.418,242.793 294,239.5C 300.993,225.196 308.826,211.196 317.5,197.5C 323.603,200.968 329.769,204.301 336,207.5C 338.581,206.583 340.914,205.249 343,203.5C 343.5,196.508 343.666,189.508 343.5,182.5 Z M 364.5,246.5 C 362.832,248.34 361.332,250.34 360,252.5C 359.333,253.833 359.333,255.167 360,256.5C 363.495,263.041 368.162,264.041 374,259.5C 377.199,250.574 374.033,246.241 364.5,246.5 Z"/></g>
<g><path style="opacity:1" fill="#3d92b1" d="M 151.5,198.5 C 146.167,198.5 140.833,198.5 135.5,198.5C 135.821,204.026 135.488,209.36 134.5,214.5C 134.5,208.833 134.5,203.167 134.5,197.5C 140.358,197.178 146.025,197.511 151.5,198.5 Z"/></g>
<g><path style="opacity:1" fill="#52c5ef" d="M 151.5,198.5 C 151.172,203.875 151.505,209.208 152.5,214.5C 160.53,217.048 167.697,221.048 174,226.5C 178.813,224.093 183.48,221.427 188,218.5C 190.707,223.416 193.541,228.249 196.5,233C 192.334,235.917 188.001,238.584 183.5,241C 182.978,241.561 182.645,242.228 182.5,243C 183.362,251.208 183.695,259.374 183.5,267.5C 187.833,270.167 192.167,272.833 196.5,275.5C 193.985,280.543 190.985,285.21 187.5,289.5C 182.906,287.287 178.406,284.953 174,282.5C 167.66,287.755 160.494,291.588 152.5,294C 151.527,299.407 151.193,304.907 151.5,310.5C 146.167,310.5 140.833,310.5 135.5,310.5C 135.821,304.974 135.488,299.64 134.5,294.5C 126.441,291.761 119.107,287.761 112.5,282.5C 107.942,284.696 103.442,287.029 99,289.5C 95.5465,285.434 92.7131,280.934 90.5,276C 95.3914,272.729 100.058,269.229 104.5,265.5C 104.101,263.803 103.601,262.137 103,260.5C 102.868,253.781 102.702,247.115 102.5,240.5C 98.1189,238.316 94.1189,235.65 90.5,232.5C 93.0821,227.667 95.9155,223 99,218.5C 103.52,221.427 108.187,224.093 113,226.5C 119.187,220.821 126.354,216.821 134.5,214.5C 135.488,209.36 135.821,204.026 135.5,198.5C 140.833,198.5 146.167,198.5 151.5,198.5 Z M 140.5,246.5 C 138.525,247.646 137.025,249.313 136,251.5C 134.55,256.768 136.383,260.268 141.5,262C 148,262.167 151.167,259 151,252.5C 149.058,247.717 145.558,245.717 140.5,246.5 Z"/></g>
<g><path style="opacity:1" fill="#52c5ef" d="M 359.5,198.5 C 364.833,198.5 370.167,198.5 375.5,198.5C 375.179,204.026 375.512,209.36 376.5,214.5C 384.703,216.934 392.037,220.934 398.5,226.5C 403.094,224.287 407.594,221.953 412,219.5C 415.454,223.566 418.287,228.066 420.5,233C 416.352,235.807 412.185,238.64 408,241.5C 407.857,245.651 408.023,249.818 408.5,254C 408.567,257.967 407.901,261.8 406.5,265.5C 410.235,269.214 414.569,272.214 419.5,274.5C 420.583,275.365 420.749,276.365 420,277.5C 417.819,281.874 415.152,285.874 412,289.5C 407.558,287.029 403.058,284.696 398.5,282.5C 392.117,287.365 385.117,291.198 377.5,294C 376.527,299.407 376.193,304.907 376.5,310.5C 370.833,310.5 365.167,310.5 359.5,310.5C 359.821,304.974 359.488,299.64 358.5,294.5C 350.65,291.66 343.483,287.66 337,282.5C 332.594,284.953 328.094,287.287 323.5,289.5C 320.015,285.21 317.015,280.543 314.5,275.5C 318.87,272.634 323.37,269.968 328,267.5C 327.297,259.329 327.464,251.162 328.5,243C 328.355,242.228 328.022,241.561 327.5,241C 322.999,238.584 318.666,235.917 314.5,233C 317.167,228.667 319.833,224.333 322.5,220C 323.5,219.333 324.5,219.333 325.5,220C 329.268,222.3 333.102,224.467 337,226.5C 343.303,221.048 350.47,217.048 358.5,214.5C 359.495,209.208 359.828,203.875 359.5,198.5 Z M 364.5,246.5 C 362.832,248.34 361.332,250.34 360,252.5C 359.333,253.833 359.333,255.167 360,256.5C 363.495,263.041 368.162,264.041 374,259.5C 377.199,250.574 374.033,246.241 364.5,246.5 Z"/></g>
<g><path style="opacity:1" fill="#3d92b1" d="M 359.5,198.5 C 364.975,197.511 370.642,197.178 376.5,197.5C 376.5,203.167 376.5,208.833 376.5,214.5C 375.512,209.36 375.179,204.026 375.5,198.5C 370.167,198.5 364.833,198.5 359.5,198.5 Z"/></g>
<g><path style="opacity:1" fill="#026cea" d="M 135.5,222.5 C 161.33,220.837 174.497,232.837 175,258.5C 171.039,276.127 160.039,285.461 142,286.5C 119.435,282.736 109.435,269.403 112,246.5C 116.018,234.65 123.851,226.65 135.5,222.5 Z M 140.5,246.5 C 138.525,247.646 137.025,249.313 136,251.5C 134.55,256.768 136.383,260.268 141.5,262C 148,262.167 151.167,259 151,252.5C 149.058,247.717 145.558,245.717 140.5,246.5 Z"/></g>
<g><path style="opacity:1" fill="#026dea" d="M 360.5,222.5 C 379.681,220.543 392.514,228.543 399,246.5C 400.686,273.814 387.853,286.981 360.5,286C 336.926,276.191 330.426,259.691 341,236.5C 346.062,229.729 352.562,225.062 360.5,222.5 Z M 364.5,246.5 C 362.832,248.34 361.332,250.34 360,252.5C 359.333,253.833 359.333,255.167 360,256.5C 363.495,263.041 368.162,264.041 374,259.5C 377.199,250.574 374.033,246.241 364.5,246.5 Z"/></g>
<g><path style="opacity:0.98" fill="#000103" d="M 135.5,231.5 C 159.172,229.666 169.005,240.333 165,263.5C 157.997,276.219 147.497,280.386 133.5,276C 121.944,269.341 117.778,259.508 121,246.5C 124.021,239.647 128.855,234.647 135.5,231.5 Z M 140.5,246.5 C 138.525,247.646 137.025,249.313 136,251.5C 134.55,256.768 136.383,260.268 141.5,262C 148,262.167 151.167,259 151,252.5C 149.058,247.717 145.558,245.717 140.5,246.5 Z"/></g>
<g><path style="opacity:0.98" fill="#010104" d="M 363.5,230.5 C 386.889,232.299 395.056,244.299 388,266.5C 378.935,278.076 367.769,280.576 354.5,274C 343.945,264.854 341.779,254.02 348,241.5C 352.086,236.216 357.252,232.549 363.5,230.5 Z M 364.5,246.5 C 362.832,248.34 361.332,250.34 360,252.5C 359.333,253.833 359.333,255.167 360,256.5C 363.495,263.041 368.162,264.041 374,259.5C 377.199,250.574 374.033,246.241 364.5,246.5 Z"/></g>
<g><path style="opacity:1" fill="#772b39" d="M 231.5,247.5 C 232.833,251.5 232.833,255.5 231.5,259.5C 230.485,255.531 230.485,251.531 231.5,247.5 Z"/></g>
<g><path style="opacity:1" fill="#ca337d" d="M 283.5,315.5 C 279.435,323.294 275.102,330.96 270.5,338.5C 268.552,336.211 266.552,333.878 264.5,331.5C 269.618,323.598 273.951,315.265 277.5,306.5C 279.745,309.32 281.745,312.32 283.5,315.5 Z"/></g>
<g><path style="opacity:1" fill="#32768f" d="M 134.5,294.5 C 135.488,299.64 135.821,304.974 135.5,310.5C 140.833,310.5 146.167,310.5 151.5,310.5C 146.025,311.489 140.358,311.822 134.5,311.5C 134.5,305.833 134.5,300.167 134.5,294.5 Z"/></g>
<g><path style="opacity:1" fill="#25596c" d="M 358.5,294.5 C 359.488,299.64 359.821,304.974 359.5,310.5C 365.167,310.5 370.833,310.5 376.5,310.5C 370.69,311.49 364.69,311.823 358.5,311.5C 358.5,305.833 358.5,300.167 358.5,294.5 Z"/></g>
<g><path style="opacity:0.886" fill="#000000" d="M 214.5,406.5 C 220.167,406.5 225.833,406.5 231.5,406.5C 231.5,411.833 231.5,417.167 231.5,422.5C 225.833,422.5 220.167,422.5 214.5,422.5C 214.5,417.167 214.5,411.833 214.5,406.5 Z"/></g>
<g><path style="opacity:0.837" fill="#000000" d="M 246.5,406.5 C 252.5,406.5 258.5,406.5 264.5,406.5C 264.5,411.833 264.5,417.167 264.5,422.5C 258.5,422.5 252.5,422.5 246.5,422.5C 246.5,417.167 246.5,411.833 246.5,406.5 Z"/></g>
<g><path style="opacity:0.886" fill="#000000" d="M 279.5,406.5 C 285.167,406.5 290.833,406.5 296.5,406.5C 296.5,411.833 296.5,417.167 296.5,422.5C 290.833,422.5 285.167,422.5 279.5,422.5C 279.5,417.167 279.5,411.833 279.5,406.5 Z"/></g>
</svg>
