<?xml version="1.0" encoding="UTF-8"?>
<!DOCTYPE svg PUBLIC "-//W3C//DTD SVG 1.1//EN" "http://www.w3.org/Graphics/SVG/1.1/DTD/svg11.dtd">
<svg xmlns="http://www.w3.org/2000/svg" version="1.1" width="512px" height="512px" style="shape-rendering:geometricPrecision; text-rendering:geometricPrecision; image-rendering:optimizeQuality; fill-rule:evenodd; clip-rule:evenodd" xmlns:xlink="http://www.w3.org/1999/xlink">
<g><path style="opacity:0.951" fill="#fefffe" d="M 511.5,226.5 C 511.5,236.833 511.5,247.167 511.5,257.5C 504.535,298.581 482.202,328.081 444.5,346C 408.685,359.31 375.018,355.31 343.5,334C 332.696,324.197 322.196,314.03 312,303.5C 311.667,317.833 311.333,332.167 311,346.5C 306.872,353.489 301.039,355.322 293.5,352C 291.19,350.363 289.69,348.196 289,345.5C 288.333,320.833 288.333,296.167 289,271.5C 289.786,268.417 291.619,266.251 294.5,265C 307.434,263.861 320.434,263.361 333.5,263.5C 346.566,263.361 359.566,263.861 372.5,265C 379.999,271.32 380.332,277.987 373.5,285C 358.593,286.302 343.593,286.968 328.5,287C 338.564,297.733 349.23,307.733 360.5,317C 394.783,336.886 427.45,334.552 458.5,310C 489.832,278.182 496.666,241.682 479,200.5C 454.611,159.035 419.444,145.535 373.5,160C 367.843,162.493 362.51,165.493 357.5,169C 296.871,221.294 236.537,273.961 176.5,327C 143.572,354.231 106.906,360.564 66.5,346C 28.7983,328.081 6.46494,298.581 -0.5,257.5C -0.5,247.167 -0.5,236.833 -0.5,226.5C 7.35152,181.973 32.3515,151.473 74.5,135C 109.368,124.978 141.368,130.645 170.5,152C 180,161.5 189.5,171 199,180.5C 199.333,166.167 199.667,151.833 200,137.5C 204.128,130.511 209.961,128.678 217.5,132C 219.378,133.543 220.878,135.376 222,137.5C 222.667,162.5 222.667,187.5 222,212.5C 221.214,215.583 219.381,217.749 216.5,219C 203.733,220.139 190.9,220.639 178,220.5C 164.78,220.629 151.614,220.129 138.5,219C 130.99,212.634 130.657,205.967 137.5,199C 139.392,198.027 141.392,197.36 143.5,197C 156.167,196.667 168.833,196.333 181.5,196C 171.065,184.56 159.732,174.226 147.5,165C 108.657,145.39 74.1569,151.224 44,182.5C 24.5618,206.674 18.2285,234.007 25,264.5C 33.5285,295.692 53.0285,316.526 83.5,327C 108.706,333.799 132.04,329.799 153.5,315C 214.463,262.373 275.129,209.373 335.5,156C 368.343,129.449 404.676,123.449 444.5,138C 482.59,155.587 504.923,185.087 511.5,226.5 Z"/></g>
</svg>
