<svg xmlns="http://www.w3.org/2000/svg" xmlns:xlink="http://www.w3.org/1999/xlink" version="1.1" x="0px" y="0px" viewBox="0 0 512 640" style="enable-background:new 0 0 512 512;" xml:space="preserve"><path d="M385,92.9c24.2,0,36.5,29.5,19.3,46.6c-17.1,17.1-46.6,4.9-46.6-19.3C357.7,105.2,369.9,92.9,385,92.9L385,92.9z   M395.9,109.4c-9.6-9.6-26.1-2.8-26.1,10.8c0,13.6,16.5,20.4,26.1,10.8C401.8,125.1,401.8,115.4,395.9,109.4L395.9,109.4z   M256,202.6c20.6,0,33,22.8,21.9,40.1c-2,3.1-4.6,5.7-7.6,7.7v28.9c0,6.1-4.9,11-11,11c-5.7,0-10.3,0.8-14.3-3.2  c-2-2-3.2-4.8-3.2-7.8v-28.9c-13.7-9-15.8-28.4-4.1-40.1C242.3,205.6,248.8,202.6,256,202.6L256,202.6z M265.9,218.7  c-8.8-8.8-23.9-2.6-23.9,9.9c0,5.4,3.3,10.6,7.9,12.7c2.2,0.9,3.8,3,3.8,5.6v31.4h4.5v-31.4h0c0-2.3,1.3-4.5,3.5-5.5  C270.7,237.4,272.8,225.7,265.9,218.7L265.9,218.7z M420.4,79.4l9.8-5.6c2.9-1.6,6.5-0.7,8.2,2.2l0,0L450,96.2  c1.7,2.9,0.7,6.6-2.5,8.4L438,110c1.3,6.9,1.3,13.6,0,20.4l9.8,5.7c2.9,1.6,3.8,5.3,2.2,8.2l-11.7,20.2c-1.7,2.9-5.4,3.9-8.5,2  l-9.5-5.5c-5.2,4.5-11.2,8-17.7,10.2v11.3c0,3.3-2.7,6-6,6h-23.4c-3.3,0-6-2.7-6-6v-11.3c-6.5-2.2-12.5-5.7-17.7-10.2l-9.8,5.7  c-2.9,1.6-6.5,0.7-8.2-2.2l0,0l-11.7-20.2c-1.7-2.9-0.7-6.6,2.5-8.4l9.4-5.4c-1.3-6.9-1.3-13.6,0-20.5l-9.8-5.6  c-2.9-1.6-3.9-5.4-2.2-8.2h0L331.7,76c1.7-2.9,5.4-3.9,8.5-2l9.5,5.4c5.2-4.5,11.2-8,17.7-10.2V57.9c0-3.3,2.7-6,6-6h23.4  c3.3,0,6,2.7,6,6v11.3C409.2,71.5,415.2,75,420.4,79.4L420.4,79.4z M430.9,87.2l-8.2,4.7c-2.4,1.6-5.6,1.3-7.6-0.8  c-5.1-5.2-12.5-9.8-19.7-11.5c-2.7-0.5-4.8-3-4.8-5.9v-9.8h-11.3v9.8l0,0c0,2.7-1.8,5.1-4.5,5.8c-7.7,1.9-14.5,5.9-20,11.5l0,0  c-1.8,1.9-4.8,2.4-7.3,1l-8.5-4.9l-5.7,9.9l8,4.6c2.6,1.2,4,4.2,3.2,7.1c-2.1,7.5-2.1,15.6,0,23.1l0,0c0.7,2.6-0.3,5.4-2.8,6.8  l-8.4,4.9l5.7,9.9l8.2-4.7c2.4-1.6,5.6-1.3,7.6,0.8c5.1,5.2,12.5,9.8,19.7,11.5c2.7,0.5,4.8,3,4.8,5.9v9.8h11.3v-9.8l0,0  c0-2.7,1.8-5.1,4.5-5.8c7.7-1.9,14.5-5.9,20-11.5l0,0c1.8-1.9,4.8-2.4,7.3-1l8.5,4.9l5.7-9.8l-8.2-4.7c-2.5-1.2-3.9-4.2-3.1-7  c2.1-7.5,2.1-15.6,0-23.1l0,0c-0.7-2.6,0.3-5.4,2.8-6.8l8.4-4.9L430.9,87.2z M256,175.1c39.2,0,70.9,31.7,70.9,70.9  s-31.7,70.9-70.9,70.9s-70.9-31.7-70.9-70.9S216.8,175.1,256,175.1L256,175.1z M297.7,204.3c-23-23-60.3-23-83.3,0  c-23,23-23,60.3,0,83.3c23,23,60.3,23,83.3,0C320.7,264.6,320.7,227.3,297.7,204.3L297.7,204.3z M107.7,383c2.6,2,3.1,5.8,1.1,8.4  c-2,2.6-5.8,3.1-8.4,1.1l-21.1-16.2c-3.2-2.5-3.1-7.2,0.1-9.6l21.1-16.2c2.6-2,6.4-1.5,8.4,1.1s1.5,6.4-1.1,8.4l-14.9,11.5  L107.7,383z M133.8,350.1c1.6-2.9,5.3-3.9,8.1-2.2c2.9,1.6,3.9,5.3,2.2,8.2l-21.3,37c-1.6,2.9-5.3,3.9-8.2,2.2  c-2.9-1.6-3.8-5.3-2.2-8.2L133.8,350.1z M156.2,392.5c-2.6,2-6.4,1.5-8.4-1.1c-2-2.6-1.5-6.4,1.1-8.4l14.9-11.4l-14.9-11.5  c-2.6-2-3.1-5.8-1.1-8.4s5.8-3.1,8.4-1.1l21.1,16.2c3.1,2.4,3.3,7.1,0.1,9.6L156.2,392.5z M128.3,300.6c39.2,0,70.9,31.7,70.9,70.9  s-31.7,70.9-70.9,70.9s-70.9-31.7-70.9-70.9S89.1,300.6,128.3,300.6L128.3,300.6z M170,329.9c-23-23-60.3-23-83.3,0  c-23,23-23,60.3,0,83.3c23,23,60.3,23,83.3,0C193,390.2,193,352.9,170,329.9L170,329.9z M45.6,364.9c-0.3,3.3-3.1,5.8-6.4,5.5  c-3.3-0.3-5.8-3.1-5.5-6.5c2.4-30,18.8-57.2,44.5-73.3c-11.9-52.6-14-121.4-14-184c0-2.7,1.9-5.1,4.4-5.8  c37.1-13.9,68.8-25.7,98.6-34.1c50.4-14.1,95-17.5,145.5-7.7c23.4-27.4,59.7-38.9,94.1-31c1.9-3.5,6.8-4.2,9.6-1.2l6.6,6.9  c3.2,3.4,1.5,9-3.1,10l-9.8,2.1c-3.9,0.8-7.5-2.4-7.2-6.3C353.3,28.9,306,64.3,302,114.5c-0.3,3.3-3.1,5.8-6.4,5.5  c-3.3-0.3-5.8-3.1-5.5-6.4c0.4-5.1,1.2-10.1,2.4-15.1c-39.9-6-74-2.1-114,8.8c-24.5,6.7-48.8,15.5-72.3,24.3  c0.4,46.9,2.3,99.4,11.8,145.1c10.8-1.2,21.7-0.6,32.3,1.9c1.9-3.5,6.8-4.2,9.6-1.3l6.6,6.9c3.2,3.4,1.5,9-3.1,10l-9.8,2.1  c-3.9,0.8-7.5-2.4-7.2-6.3C97,279.3,49.6,314.6,45.6,364.9L45.6,364.9z M89,284.7c5.6-2.6,11.3-4.5,17.2-6  c-5.2-24.6-8.1-51.3-9.8-77.5c-1.6-24.5-2.1-49.4-2.2-73.5c-0.2-2.6,1.3-5,3.9-6c49.7-18.7,104.1-38.3,158-38.3  c13.2,0,27,1.2,40.1,3.3c2.3-6,5.2-11.7,8.6-17c-46.6-8.2-87.8-4.5-134.4,8.5c-28.5,8-58.9,19.2-94.3,32.5  C76.2,170,78.3,234.9,89,284.7L89,284.7z M444.5,62.2c-2.4-2.4-2.3-6.1,0-8.4c2.4-2.4,6.2-2.3,8.5,0c17.3,17.4,26.5,39.8,27.6,62.6  c1.1,23-6,46.3-21.4,65.1c-2.1,2.6-5.9,2.9-8.4,0.9c-2.6-2.1-2.9-5.9-0.8-8.4c13.5-16.5,19.7-36.9,18.7-57  C467.6,97,459.6,77.3,444.5,62.2L444.5,62.2z M402.5,215.6c-29.8,5.1-61.5-4.1-83.7-25.4c-17.9-17.1-35.9-26.4-61.1-26.4  c-13.5,0-26.4,3.1-38.1,9.2c1.3,3.7-1.3,7.8-5.3,8l-10,0.5l0,0c-4.7,0.3-7.9-4.8-5.5-8.9l5.2-9.1c2.1-3.6,7.1-4,9.7-0.9  c25.2-13.1,56.5-14.5,82.1-2.9c11.2,5,21.3,12.5,31.3,22c21.1,20.2,52.6,28.1,80.3,20.7c9.8-2.7,22.4-9.7,29.5-13.5  c4.2-2.3,9.1,1,8.8,5.6l0,0C436,364,393.2,393.5,285.6,467.8c-8.6,5.9-17.5,12.1-25.7,17.8c-2.5,1.9-5.2,1.9-7.7,0  c-10.9-7.6-20.1-13.9-28.8-19.9c-10.5-7.2-20.4-14-29.1-20.2l-8.6,2.3c-4.5,1.2-8.8-3.1-7.2-7.8l3.1-9.4c1.2-3.8,5.8-5.3,9.1-3.1  c14.4-15.9,21.6-35.9,21.7-56c0-21.3-8-42.6-24.1-58.9c-0.1-0.1-0.2-0.2-0.3-0.3c-33-35.5-34.3-90.3-2.8-127.2  c2.2-2.5,5.9-2.8,8.4-0.7c2.5,2.2,2.8,5.9,0.7,8.4c-27.5,32.2-26.4,79.7,2.5,111.2l0,0c18.4,18.6,27.6,42.9,27.6,67.3  c0,13-2.7,26.1-8,38.2l39.7,27.5c25.8-17.6,60.7-41,83.5-61.5c20.2-18.2,33.6-36.1,43.6-61.4C394.6,285.2,399.9,247.3,402.5,215.6  L402.5,215.6z M210.7,420.5c-3.1,5.1-6.6,9.9-10.7,14.5c17.9,12.7,37.6,25.9,55.9,38.7c8.5-5.9,15.8-10.9,22.8-15.8  c101.9-70.2,143.7-99.1,154.2-253.5c-5.2,2.7-10.8,5.4-18.2,8c-2.7,34.2-8.2,74.8-20.6,106.3c-15.6,39.4-40.1,62.6-73.2,87.4  c-17.6,13.2-35.6,25.5-53.5,37.8c-12.9,8.8-10,8.9-23,0C233.3,436.3,222.1,428.6,210.7,420.5L210.7,420.5z M356.8,242  c2,3.5,0.1,7.8-3.7,8.8c-2.2,57.8-54.9,100.4-111.9,90.4c-3.3-0.6-5.4-3.7-4.9-6.9c0.6-3.3,3.7-5.4,6.9-4.9  c49.4,8.6,95.4-27.9,97.8-78.1c-3.9-0.7-6-5-4.3-8.6l4.6-8.9l0,0c2.1-4.2,8.1-4.5,10.5-0.3L356.8,242z M37.8,400.3  c-4.1,0.3-7.3-3.5-6.2-7.5l2.7-10.1c1.2-4.4,7.1-6.3,10.5-2.1l6.4,7.1c2.7,3,1.7,7.7-1.9,9.4c15,47,68,71.1,113.6,50.7  c3-1.4,6.5,0,7.9,3c1.4,3,0,6.5-3,7.9C115.6,482,54.9,454.5,37.8,400.3L37.8,400.3z"/><text x="0" y="527" fill="#000000" font-size="5px" font-weight="bold" font-family="'Helvetica Neue', Helvetica, Arial-Unicode, Arial, Sans-serif">Created by afian roc</text><text x="0" y="532" fill="#000000" font-size="5px" font-weight="bold" font-family="'Helvetica Neue', Helvetica, Arial-Unicode, Arial, Sans-serif">from the Noun Project</text></svg>